<svg width="186" height="25" viewBox="0 0 186 25" fill="none" xmlns="http://www.w3.org/2000/svg">
<path d="M42.048 20H45.456L49.728 6.92004V20H52.92V2.60004H47.88L43.776 16.16L39.552 2.60004H34.56V20H37.752V6.92004L42.048 20Z"/>
<path d="M59.2448 20.312C61.1888 20.312 62.5568 19.736 63.4688 18.392C63.5168 19.016 63.5888 19.592 63.6848 20H66.7328C66.4928 18.92 66.3488 17.768 66.3488 15.728C66.3488 14.552 66.3968 12.848 66.3968 12.44C66.3968 8.07204 63.9008 6.75204 60.8288 6.75204C57.5168 6.75204 55.4048 8.62404 55.1648 11.168H58.2608C58.3328 9.75204 59.3888 9.08004 60.6608 9.08004C62.0048 9.08004 63.0848 9.77604 63.0848 11.768V11.984C58.0208 12.56 54.5888 13.472 54.5888 16.52C54.5888 18.872 56.7728 20.312 59.2448 20.312ZM63.1808 14.096V15.056C63.1808 16.928 62.2928 18.056 60.2288 18.056C58.7408 18.056 57.9968 17.288 57.9968 16.352C57.9968 14.912 59.4848 14.48 63.1808 14.096Z"/>
<path d="M75.7078 10.28V7.16004C75.4918 7.13604 75.2038 7.11204 74.9878 7.11204C73.4998 7.11204 72.3238 7.76004 71.5798 9.34404V7.08804H68.3158V20H71.6278V13.232C71.6278 10.808 72.7078 10.208 74.3398 10.208C74.8198 10.208 75.2278 10.232 75.7078 10.28Z"/>
<path d="M77.0256 3.58404V7.08804H75.2016V9.36804H77.0256V16.52C77.0256 19.088 77.6016 20 80.5536 20H82.9776V17.624H81.9696C80.7936 17.624 80.3376 17.36 80.3376 16.04V9.36804H83.0256V7.08804H80.3376V3.58404H77.0256Z"/>
<path d="M87.6197 2.60004H84.3077V5.67204H87.6197V2.60004ZM87.6197 7.08804H84.3077V20H87.6197V7.08804Z"/>
<path d="M93.061 8.79204V7.08804H89.749V20H93.061V13.28C93.061 11.24 93.541 9.46404 95.725 9.46404C97.597 9.46404 97.957 10.904 97.957 12.584V20H101.269V11.864C101.269 8.69604 99.901 6.80004 96.805 6.80004C95.221 6.80004 93.805 7.49604 93.061 8.79204Z"/>
<path d="M107.852 2.60004V20H111.284V12.488H120.02V9.70404H111.284V5.38404H120.524V2.60004H107.852Z"/>
<path d="M128.876 18.296V20H132.188V7.08804H128.876V13.808C128.876 15.848 128.372 17.648 126.188 17.648C124.316 17.648 124.076 16.256 124.076 14.528V7.08804H120.764V15.248C120.764 18.416 122.012 20.312 125.108 20.312C126.692 20.312 128.132 19.592 128.876 18.296Z"/>
<path d="M146.079 7.08804H142.791V8.76804C142.215 7.64004 140.727 6.80004 139.095 6.80004C135.855 6.80004 133.479 9.48804 133.479 13.16C133.479 16.928 135.903 19.544 139.095 19.544C140.439 19.544 141.951 19.016 142.791 17.6V19.328C142.791 21.272 141.639 22.088 139.911 22.088C138.399 22.088 137.535 21.584 137.247 20.504H134.103C134.535 23.528 136.983 24.512 139.743 24.512C143.703 24.512 146.079 22.928 146.079 18.704V7.08804ZM142.911 13.16C142.911 15.44 141.783 17.024 139.935 17.024C138.231 17.024 136.959 15.32 136.959 13.184C136.959 11.024 138.231 9.32004 139.935 9.32004C141.783 9.32004 142.911 10.904 142.911 13.16Z"/>
<path d="M151.556 20V2.60004H148.244V20H151.556Z"/>
<path d="M160.958 10.976H164.054C163.622 8.00004 161.054 6.75204 158.366 6.75204C155.582 6.75204 153.086 8.26404 153.086 10.592C153.086 12.944 154.694 13.952 157.118 14.456L159.038 14.864C160.142 15.104 161.15 15.488 161.15 16.448C161.15 17.384 160.238 17.912 158.822 17.912C157.118 17.912 156.23 16.976 156.038 15.728H152.846C153.158 18.68 155.558 20.312 158.726 20.312C161.654 20.312 164.318 18.728 164.318 16.136C164.318 13.472 162.134 12.824 159.566 12.248L157.838 11.864C156.614 11.6 156.11 11.072 156.11 10.376C156.11 9.58404 156.974 9.12804 158.198 9.12804C159.71 9.12804 160.718 9.89604 160.958 10.976Z"/>
<path d="M168.114 14.456H177.642C177.786 9.89604 175.29 6.80004 171.306 6.80004C167.49 6.80004 164.826 9.65604 164.826 13.496C164.826 17.216 167.25 20.312 171.402 20.312C174.906 20.312 176.802 18.176 177.498 16.256H174.09C173.418 17.384 172.386 17.744 171.378 17.744C169.818 17.744 168.282 16.664 168.114 14.456ZM168.162 12.176C168.426 10.016 170.034 9.22404 171.282 9.22404C172.674 9.22404 174.21 9.99204 174.282 12.176H168.162Z"/>
<path d="M179.391 3.58404V7.08804H177.567V9.36804H179.391V16.52C179.391 19.088 179.967 20 182.919 20H185.343V17.624H184.335C183.159 17.624 182.703 17.36 182.703 16.04V9.36804H185.391V7.08804H182.703V3.58404H179.391Z"/>
<path d="M9.58333 0.159004C4.14438 1.07149 0 5.80176 0 11.5C0 17.2935 4.28409 22.0864 9.85714 22.8835C0.5 12 3.5 5 9.85714 0.11646C9.76552 0.129566 9.67425 0.143751 9.58333 0.159004Z"/>
<path d="M17.8591 21.0833C20.9578 19.0231 23 15.5 23 11.5C23 5.70651 18.7159 0.913623 13.1429 0.11646C4.45076 5.63211 18.7618 18.6909 13.1429 22.8835C14.8681 22.6368 16.4698 22.0071 17.8591 21.0833Z"/>
</svg>
